<?xml version="1.0" standalone="no"?>
<!DOCTYPE svg PUBLIC "-//W3C//DTD SVG 20010904//EN"
 "http://www.w3.org/TR/2001/REC-SVG-20010904/DTD/svg10.dtd">
<svg version="1.0" xmlns="http://www.w3.org/2000/svg"
 width="800.000000pt" height="611.000000pt" viewBox="0 0 800.000000 611.000000"
 preserveAspectRatio="xMidYMid meet">
<metadata>
Created by potrace 1.12, written by Peter Selinger 2001-2015
</metadata>
<g transform="translate(0.000000,611.000000) scale(0.100000,-0.100000)"
fill="#000000" stroke="none">
<path d="M6318 5683 c-15 -16 -43 -57 -64 -93 -41 -70 -126 -166 -187 -211
l-39 -28 -166 6 c-146 4 -180 3 -272 -16 -58 -12 -141 -38 -185 -58 -44 -19
-101 -44 -126 -55 l-47 -21 -64 30 c-36 17 -112 62 -169 100 -134 90 -160 103
-206 103 -70 0 -87 -31 -85 -153 1 -75 6 -100 37 -176 19 -49 41 -107 49 -129
8 -23 38 -75 65 -116 28 -41 47 -77 42 -80 -4 -3 -70 -10 -146 -16 -144 -11
-191 -19 -265 -45 -41 -14 -52 -14 -115 -1 -139 31 -296 47 -615 62 -592 29
-664 18 -1020 -155 -124 -60 -254 -123 -290 -140 -126 -59 -286 -185 -441
-346 -169 -177 -349 -390 -436 -517 -83 -122 -93 -131 -192 -182 -214 -110
-370 -160 -479 -154 l-54 3 -32 80 c-72 177 -89 199 -207 268 -36 21 -96 63
-134 93 -123 98 -148 87 -154 -69 -7 -216 56 -338 219 -423 25 -13 68 -20 155
-24 72 -4 159 -16 219 -30 l98 -24 167 29 c91 16 186 31 210 33 l43 4 -6 -98
c-25 -396 -18 -523 41 -736 14 -51 32 -122 39 -157 20 -90 66 -221 146 -411
38 -91 105 -255 149 -365 44 -110 118 -273 165 -362 46 -90 84 -171 84 -182 0
-10 -16 -45 -36 -77 -31 -51 -35 -66 -32 -109 9 -104 75 -192 165 -218 201
-59 295 -66 431 -34 126 30 176 61 204 124 18 41 19 52 9 97 -6 28 -23 78 -36
111 -31 74 -31 91 -3 135 l23 35 5 -70 c3 -38 8 -75 12 -81 16 -24 169 -80
318 -115 62 -14 258 34 318 78 27 21 32 30 32 67 0 34 -8 53 -40 96 -47 63
-65 116 -51 153 5 14 15 28 21 32 7 4 86 4 176 0 l163 -7 103 -204 102 -205
-17 -27 c-73 -111 -92 -196 -61 -270 32 -78 91 -120 226 -162 164 -52 256 -49
406 11 143 57 212 129 212 220 0 55 -41 143 -104 224 -26 32 -45 64 -43 70 24
61 67 224 118 444 16 69 33 129 37 133 20 20 54 -35 107 -176 l56 -148 -26
-87 c-30 -103 -31 -142 -4 -201 26 -57 64 -97 103 -109 64 -19 201 -34 274
-28 182 13 308 66 326 138 11 46 -23 164 -65 227 -69 102 -70 114 -33 252 14
52 27 127 30 165 2 39 11 120 19 180 8 61 19 159 25 218 6 59 13 114 17 122 7
19 30 19 140 1 216 -35 337 -48 395 -43 134 11 421 74 543 120 66 24 158 56
205 70 90 28 379 184 518 280 79 54 231 208 312 315 27 37 78 123 113 190 l62
124 -1 206 c0 242 -8 286 -85 461 -91 210 -160 310 -299 435 -182 165 -328
250 -503 294 -65 17 -120 32 -122 34 -8 9 -105 260 -105 272 0 10 17 16 58 21
84 9 143 24 179 46 54 34 139 134 157 185 43 126 -6 199 -159 239 -108 28
-152 20 -324 -55 -85 -37 -181 -52 -181 -28 0 8 19 50 42 94 38 73 42 85 41
154 0 114 -50 258 -118 339 -33 38 -54 39 -87 4z m82 -85 c35 -59 67 -275 50
-340 -12 -42 -55 -98 -76 -98 -8 0 -31 11 -52 24 -20 14 -83 46 -140 72 l-102
47 98 101 c53 56 113 126 132 156 51 82 61 86 90 38z m-1541 -248 c22 -10 94
-55 162 -100 104 -68 253 -140 289 -140 20 0 9 -18 -27 -43 -21 -15 -69 -59
-108 -98 -71 -72 -115 -101 -171 -113 -27 -6 -35 -2 -62 28 -49 56 -78 113
-126 250 -74 206 -61 270 43 216z m1049 -60 c37 -6 105 -30 160 -56 54 -25
121 -54 150 -65 29 -10 71 -33 92 -52 77 -66 256 -321 333 -473 42 -83 92
-222 84 -231 -4 -3 -75 -10 -159 -15 -181 -10 -250 -18 -423 -47 -161 -27
-262 -50 -295 -66 -14 -7 -52 -23 -85 -35 -197 -75 -273 -121 -583 -353 -88
-67 -236 -308 -266 -435 -10 -42 -16 -52 -21 -39 -7 17 1 78 40 327 8 52 15
118 15 145 0 28 5 66 11 85 7 19 15 103 18 185 l6 150 40 9 c225 48 391 146
517 304 99 125 112 158 113 287 0 61 -4 169 -9 242 l-9 132 49 4 c100 7 161 7
222 -3z m1102 -214 c42 -28 42 -28 38 -77 -4 -39 -14 -61 -50 -107 -24 -31
-64 -68 -88 -82 -40 -22 -57 -25 -144 -25 l-98 0 -37 41 c-20 23 -54 67 -76
99 -46 67 -48 62 70 122 116 59 131 63 241 60 92 -2 105 -5 144 -31z m-3753
-385 c123 -89 207 -285 188 -436 -8 -70 -40 -116 -182 -267 -269 -285 -302
-355 -233 -479 65 -116 100 -198 125 -291 26 -97 115 -308 181 -425 59 -106
125 -177 196 -212 35 -17 89 -36 121 -42 74 -15 152 3 292 67 184 84 226 96
380 105 232 13 330 41 448 126 l47 35 0 -35 c0 -69 32 -214 64 -293 90 -221
296 -438 519 -545 26 -13 47 -26 47 -30 0 -4 -15 -18 -33 -32 -18 -14 -91 -80
-162 -147 -72 -67 -157 -141 -189 -163 -59 -40 -265 -142 -272 -135 -2 2 -6
36 -10 74 l-7 70 -29 -4 c-18 -3 -33 -13 -38 -26 -33 -87 -108 -350 -156 -551
-62 -262 -75 -298 -117 -329 -26 -19 -41 -21 -160 -19 -73 1 -159 5 -192 10
l-60 8 -82 160 c-45 88 -107 219 -138 290 -82 193 -93 209 -138 213 -35 3 -37
2 -37 -27 0 -17 9 -54 20 -83 11 -29 20 -57 20 -62 0 -17 -185 1 -234 23 -39
17 -59 19 -133 14 -64 -4 -105 -1 -151 11 -35 9 -97 16 -139 16 -65 0 -74 2
-69 16 3 9 9 33 12 55 6 38 6 39 -22 39 -42 0 -51 -9 -80 -80 -66 -164 -193
-373 -244 -403 -54 -32 -123 -38 -259 -22 l-126 14 -75 79 c-67 69 -84 96
-157 245 -45 92 -96 205 -112 251 -16 46 -43 110 -59 143 -16 32 -35 76 -42
98 -7 22 -23 61 -36 86 -44 88 -144 370 -164 462 -10 51 -36 151 -56 222 -35
127 -36 135 -38 315 -2 332 33 520 134 726 33 66 60 125 60 130 0 25 234 312
266 326 20 9 52 7 157 -13 187 -34 254 -32 339 8 93 44 133 77 159 130 20 42
21 54 15 186 -4 78 -8 157 -9 174 l-2 33 177 86 c190 92 302 131 384 133 41 1
59 -4 91 -28z m1526 -42 c23 -5 67 -27 97 -48 67 -46 74 -74 36 -132 -35 -52
-147 -143 -224 -181 -57 -28 -68 -30 -132 -25 -78 7 -95 14 -152 65 -53 48
-68 80 -68 148 0 55 2 59 45 100 76 74 103 83 238 84 65 0 137 -5 160 -11z
m2143 -334 c120 -30 222 -82 347 -176 210 -157 298 -267 402 -496 73 -161 85
-229 85 -463 l0 -190 -46 -93 c-142 -283 -373 -499 -724 -676 -230 -117 -553
-199 -735 -188 -140 8 -369 101 -543 219 -96 65 -252 220 -320 317 -55 79 -83
142 -102 234 -6 31 -14 57 -17 57 -4 0 -15 -7 -25 -17 -27 -24 -24 -114 6
-180 39 -82 142 -229 218 -309 122 -128 319 -260 457 -305 80 -26 133 -52 150
-73 12 -14 6 -16 -59 -16 -105 0 -384 38 -440 60 -83 33 -226 107 -292 151
-34 23 -106 86 -159 139 -83 82 -103 110 -143 191 -75 154 -89 224 -90 429 0
154 3 189 26 292 39 174 132 379 232 516 25 34 82 89 133 128 48 37 117 91
153 120 178 143 560 290 880 340 75 11 339 21 430 16 47 -2 126 -15 176 -27z
m-6380 -707 c72 -48 136 -93 141 -100 9 -11 63 -135 63 -145 0 -2 -10 -3 -22
-3 -32 0 -45 -11 -54 -44 -6 -26 -10 -28 -45 -23 -84 11 -165 72 -208 155 -36
71 -50 275 -18 255 7 -4 71 -46 143 -95z m4901 -1870 c-4 -57 -13 -139 -21
-183 -9 -44 -15 -100 -16 -125 0 -25 -11 -97 -24 -161 -24 -116 -58 -200 -92
-231 -48 -42 -231 -54 -289 -18 -45 28 -80 83 -104 166 -12 39 -34 104 -51
143 l-29 71 102 51 c187 94 234 126 374 260 75 71 140 129 146 129 6 0 8 -36
4 -102z m-2337 -553 c30 -8 78 -15 105 -16 28 0 61 -4 73 -8 l24 -6 -22 -28
c-40 -50 -74 -61 -190 -61 -90 1 -113 5 -163 27 -63 29 -75 46 -59 83 11 23
16 24 94 24 46 0 108 -7 138 -15z m2348 -313 c33 -70 34 -73 17 -98 -36 -55
-178 -78 -232 -37 -29 21 -30 24 -17 111 7 50 9 54 53 77 25 13 60 33 76 45
l30 20 19 -22 c10 -13 34 -56 54 -96z m-2761 -102 c44 -73 45 -129 4 -171 -24
-24 -38 -29 -76 -29 -74 0 -84 10 -79 77 8 94 13 116 34 151 17 28 25 33 53
30 27 -3 37 -12 64 -58z m1884 -136 c44 -65 62 -129 48 -171 -10 -30 -51 -73
-69 -73 -12 0 -67 158 -75 213 -8 54 4 77 41 77 16 0 32 -14 55 -46z"/>
<path d="M6223 4839 c-44 -28 -66 -80 -60 -142 4 -43 10 -56 45 -89 37 -34 47
-38 92 -38 95 0 150 53 150 143 0 93 -54 147 -145 147 -33 0 -61 -7 -82 -21z"/>
<path d="M5753 4710 c-88 -53 -84 -208 6 -255 40 -20 109 -19 150 3 90 48 94
200 7 253 -42 25 -121 25 -163 -1z"/>
<path d="M2048 3406 c-50 -13 -89 -37 -206 -123 -88 -66 -148 -140 -204 -252
-37 -74 -42 -95 -46 -168 -8 -148 37 -213 184 -267 109 -39 118 -46 161 -128
49 -96 137 -184 225 -228 57 -28 76 -32 121 -28 74 6 142 42 213 112 72 72 87
110 109 274 8 62 24 134 35 159 11 24 51 77 89 116 86 91 101 119 101 199 0
109 -71 222 -168 270 -43 20 -61 22 -217 23 -153 0 -175 2 -217 22 -63 29
-123 35 -180 19z"/>
<path d="M3455 2436 c-16 -7 -43 -24 -60 -38 -47 -39 -70 -48 -127 -48 -51 -1
-155 -21 -177 -35 -18 -10 -51 -82 -51 -109 0 -40 20 -74 55 -90 35 -17 35
-15 56 -166 18 -128 77 -268 142 -341 68 -76 206 -106 340 -75 132 31 203 81
294 207 23 32 49 56 73 65 34 14 60 47 60 77 0 7 -11 35 -24 62 -28 61 -106
140 -163 166 -24 10 -43 24 -43 31 -1 7 -14 28 -30 47 -15 18 -26 39 -23 47 3
7 0 28 -6 47 -9 27 -31 46 -116 100 -111 71 -141 79 -200 53z"/>
<path d="M6877 3989 c-54 -13 -87 -32 -129 -76 -50 -51 -71 -105 -71 -178 2
-278 378 -354 494 -100 25 54 25 157 0 210 -23 49 -84 109 -131 129 -49 20
-118 26 -163 15z"/>
<path d="M6015 3871 c-135 -35 -215 -171 -185 -316 14 -68 59 -129 124 -170
44 -27 57 -30 130 -30 92 0 138 19 192 77 55 58 69 95 69 183 0 59 -5 89 -19
115 -25 49 -74 98 -119 121 -42 22 -145 33 -192 20z"/>
</g>
</svg>
