<?xml version="1.0" standalone="no"?>
<!DOCTYPE svg PUBLIC "-//W3C//DTD SVG 20010904//EN"
 "http://www.w3.org/TR/2001/REC-SVG-20010904/DTD/svg10.dtd">
<svg version="1.0" xmlns="http://www.w3.org/2000/svg"
 width="185.000000pt" height="198.000000pt" viewBox="0 0 185.000000 198.000000"
 preserveAspectRatio="xMidYMid meet">
<metadata>
Created by potrace 1.12, written by Peter Selinger 2001-2015
</metadata>
<g transform="translate(0.000000,198.000000) scale(0.100000,-0.100000)"
fill="#000000" stroke="none">
<path d="M745 1951 c-106 -28 -221 -136 -400 -376 -102 -137 -125 -174 -155
-250 -13 -33 -40 -94 -60 -135 -49 -98 -75 -176 -96 -280 -53 -269 63 -578
266 -707 30 -20 83 -57 116 -84 66 -52 155 -99 190 -99 11 0 48 14 82 31 75
37 160 127 204 216 34 70 34 80 3 276 -19 124 -43 194 -94 282 -48 82 -66 139
-87 277 -21 138 -15 279 17 376 22 67 33 84 121 178 110 119 130 160 106 223
-8 20 -27 43 -45 54 -36 21 -123 30 -168 18z"/>
<path d="M1039 1897 c-15 -24 -19 -45 -16 -82 3 -50 22 -85 108 -204 84 -116
122 -362 83 -549 -22 -105 -52 -176 -109 -252 -64 -87 -82 -129 -100 -241 -33
-206 -6 -395 69 -477 44 -49 94 -67 187 -67 80 0 91 3 170 42 144 71 275 213
335 363 34 82 68 381 60 520 -6 119 -26 241 -51 315 -55 164 -180 335 -350
483 -150 130 -208 160 -328 175 -35 5 -41 2 -58 -26z"/>
</g>
</svg>
